<?xml version="1.0" encoding="UTF-8"?>
<svg xmlns="http://www.w3.org/2000/svg" xmlns:xlink="http://www.w3.org/1999/xlink" width="600" zoomAndPan="magnify" viewBox="0 0 450 449.999984" height="600" preserveAspectRatio="xMidYMid meet" version="1.0">
  <defs>
    <g></g>
    <clipPath id="dac67aca2e">
      <path d="M 28.253906 7.898438 L 421.746094 7.898438 L 421.746094 442.101562 L 28.253906 442.101562 Z M 28.253906 7.898438 " clip-rule="nonzero"></path>
    </clipPath>
    <clipPath id="19786397b9">
      <path d="M 421.746094 7.898438 L 421.746094 442.101562 L 225 374.257812 L 28.253906 442.101562 L 28.253906 7.898438 L 421.746094 7.898438 " clip-rule="nonzero"></path>
    </clipPath>
  </defs>
  <g clip-path="url(#dac67aca2e)">
    <g clip-path="url(#19786397b9)">
      <path fill="#c60404" d="M 28.253906 7.898438 L 421.746094 7.898438 L 421.746094 442.101562 L 28.253906 442.101562 Z M 28.253906 7.898438 " fill-opacity="1" fill-rule="nonzero"></path>
    </g>
  </g>
  <g fill="#ffffff" fill-opacity="1">
    <g transform="translate(45.000005, 256.601675)">
      <g>
        <path d="M 76.109375 -19.03125 L 76.109375 -99 L 89.0625 -99 L 89.0625 0 L 74.03125 0 L 23.71875 -79.96875 L 23.4375 -79.96875 L 23.4375 0 L 10.484375 0 L 10.484375 -99 L 26.328125 -99 L 75.828125 -19.03125 Z M 76.109375 -19.03125 "></path>
      </g>
    </g>
  </g>
  <g fill="#ffffff" fill-opacity="1">
    <g transform="translate(144.544528, 256.601675)">
      <g>
        <path d="M 25.234375 -87.140625 L 25.234375 -56.796875 L 79.421875 -56.796875 L 79.421875 -44.953125 L 25.234375 -44.953125 L 25.234375 -11.859375 L 84.9375 -11.859375 L 84.9375 0 L 11.859375 0 L 11.859375 -99 L 83.96875 -99 L 83.96875 -87.140625 Z M 25.234375 -87.140625 "></path>
      </g>
    </g>
  </g>
  <g fill="#ffffff" fill-opacity="1">
    <g transform="translate(236.506039, 256.601675)">
      <g>
        <path d="M 35.4375 -18.46875 L 57.625 -99 L 72.25 -99 L 94.4375 -18.46875 L 94.71875 -18.46875 L 113.203125 -99 L 127.953125 -99 L 101.890625 0 L 87.828125 0 L 65.21875 -82.03125 L 64.9375 -82.03125 L 42.046875 0 L 27.984375 0 L 2.203125 -99 L 16.6875 -99 L 35.15625 -18.46875 Z M 35.4375 -18.46875 "></path>
      </g>
    </g>
  </g>
  <g fill="#ffffff" fill-opacity="1">
    <g transform="translate(366.658469, 256.601675)">
      <g>
        <path d="M 22.46875 -23.578125 L 15.71875 -23.578125 L 12.40625 -66.3125 L 12.40625 -99 L 25.78125 -99 L 25.78125 -66.3125 Z M 12.40625 0 L 12.40625 -14.0625 L 25.78125 -14.0625 L 25.78125 0 Z M 12.40625 0 "></path>
      </g>
    </g>
  </g>
</svg>
